<?xml version="1.0" encoding="UTF-8"?> <svg xmlns="http://www.w3.org/2000/svg" width="175" height="27" viewBox="0 0 175 27" fill="none"><path d="M3.43434 17.5066C3.50306 21.4793 6.04125 23.1156 8.97884 23.1156C11.0833 23.1156 12.3502 22.7462 13.454 22.2824L13.9564 24.3868C12.9214 24.8549 11.152 25.3875 8.57943 25.3875C3.60183 25.3875 0.629883 22.1149 0.629883 17.2404C0.629883 12.3659 3.50306 8.52637 8.21008 8.52637C13.4883 8.52637 14.8884 13.169 14.8884 16.1409C14.8884 16.7422 14.8197 17.2103 14.7896 17.5109H3.43434V17.5066ZM12.0496 15.4022C12.0839 13.534 11.2808 10.6265 7.97388 10.6265C5.00192 10.6265 3.70062 13.3665 3.46441 15.4022H12.0453H12.0496Z" fill="#163D30"></path><path d="M18.5303 1.3418H21.4679V25.053H18.5303V1.3418Z" fill="#163D30"></path><path d="M31.8782 24.5676C29.8296 23.4939 28.219 21.9821 27.0466 20.028C25.8741 18.0739 25.29 15.8106 25.29 13.2338C25.29 10.6569 25.8784 8.45374 27.0595 6.48675C28.2405 4.52406 29.8382 2.99943 31.8567 1.91286C33.8752 0.830587 36.1171 0.285156 38.5865 0.285156C40.4762 0.285156 42.2714 0.590082 43.9807 1.20423C45.69 1.81838 47.0686 2.64726 48.1165 3.69947L43.9936 8.56111C43.3923 7.87395 42.6751 7.3414 41.8376 6.96776C41.0002 6.59412 40.0338 6.40515 38.9387 6.40515C37.7576 6.40515 36.6754 6.70149 35.6876 7.28987C34.6998 7.88254 33.9224 8.69424 33.3512 9.73786C32.7801 10.7815 32.4966 11.9454 32.4966 13.2338C32.4966 14.6081 32.75 15.8149 33.2525 16.8585C33.755 17.9022 34.5194 18.7139 35.5373 19.3065C36.5551 19.8992 37.7877 20.1912 39.2221 20.1912C39.9522 20.1912 40.6437 20.1096 41.3008 19.9507C41.9536 19.7918 42.4002 19.5814 42.6365 19.3237L42.2199 22.7037V16.326H37.8392V10.8502H48.4988V23.8589C47.2533 24.5676 45.7716 25.1302 44.0537 25.5511C42.3358 25.9677 40.5879 26.1781 38.8056 26.1781C36.2287 26.1781 33.9139 25.6413 31.8653 24.5676H31.8782Z" fill="#163D30"></path><path d="M55.9327 25.036C54.4209 24.2543 53.2098 23.1377 52.3079 21.6861C51.406 20.2388 50.9551 18.5466 50.9551 16.614C50.9551 14.6814 51.406 13.0022 52.3079 11.5763C53.2098 10.1505 54.4166 9.0553 55.9327 8.29084C57.4444 7.53067 59.1065 7.14844 60.906 7.14844C62.7055 7.14844 64.4105 7.53067 65.9437 8.29084C67.4769 9.051 68.7009 10.1462 69.6157 11.5763C70.5262 13.0022 70.9857 14.6857 70.9857 16.614C70.9857 18.5424 70.5305 20.2388 69.6157 21.6861C68.7009 23.1334 67.4726 24.25 65.9308 25.036C64.3847 25.8176 62.7098 26.2127 60.906 26.2127C59.1022 26.2127 57.4444 25.8219 55.9327 25.036ZM62.873 20.0112C63.4313 19.659 63.8607 19.178 64.1614 18.5767C64.462 17.9755 64.6123 17.3227 64.6123 16.614C64.6123 15.9483 64.4577 15.3213 64.1442 14.7286C63.8307 14.1403 63.3969 13.6678 62.8386 13.3114C62.2803 12.9592 61.6361 12.7788 60.906 12.7788C60.1759 12.7788 59.566 12.9549 59.0077 13.3114C58.4494 13.6635 58.0199 14.136 57.7193 14.7286C57.4186 15.3213 57.2683 15.9483 57.2683 16.614C57.2683 17.3227 57.4186 17.9755 57.7193 18.5767C58.0199 19.178 58.4537 19.6547 59.0249 20.0112C59.5918 20.3633 60.2446 20.5437 60.9747 20.5437C61.7048 20.5437 62.3146 20.3676 62.873 20.0112Z" fill="#163D30"></path><path d="M75.8823 25.0053C74.9159 24.3095 74.2288 23.4076 73.8208 22.2996C73.4128 21.1959 73.2109 19.9847 73.2109 18.6748V7.79199H79.9107V17.2919C79.9107 18.0006 79.9923 18.5889 80.1512 19.0614C80.3101 19.5338 80.5592 19.8988 80.8899 20.1565C81.2206 20.4142 81.6673 20.5431 82.2256 20.5431C82.698 20.5431 83.1318 20.4056 83.5312 20.1265C83.9263 19.8473 84.2269 19.4608 84.4331 18.9669C84.6349 18.473 84.738 17.8846 84.738 17.1975V7.79629H91.4678V23.8328C91.4678 24.2838 91.4764 24.8636 91.5022 25.5722H84.9957C84.9742 25.1212 84.9613 24.7476 84.9613 24.447V23.3518H84.8969C84.5963 23.8457 84.184 24.2967 83.6557 24.7047C83.1275 25.1126 82.5133 25.439 81.8047 25.6881C81.0961 25.9329 80.366 26.0575 79.6144 26.0575C78.0898 26.0575 76.8443 25.7096 75.878 25.0096L75.8823 25.0053Z" fill="#163D30"></path><path d="M95.2211 9.43312C95.2082 9.00365 95.1953 8.45822 95.1738 7.79253H101.616C101.616 8.24348 101.62 8.62571 101.633 8.93493C101.642 9.24845 101.65 9.61779 101.65 10.0473H101.745C102.174 9.23127 102.797 8.56988 103.613 8.0674C104.429 7.56491 105.339 7.31152 106.349 7.31152C106.971 7.31152 107.465 7.36735 107.83 7.47043L107.349 13.2039C106.791 13.0751 106.246 13.0106 105.709 13.0106C104.936 13.0106 104.27 13.1824 103.712 13.526C103.153 13.8696 102.72 14.3248 102.406 14.896C102.093 15.4629 101.938 16.0943 101.938 16.7814V25.5727H95.2382V11.0479C95.2382 10.4037 95.2339 9.86689 95.2211 9.43742V9.43312Z" fill="#163D30"></path><path d="M109.84 9.67733C109.827 9.19632 109.814 8.565 109.793 7.79194H116.299C116.321 8.24289 116.334 8.62083 116.334 8.91717V10.0123H116.433C116.733 9.51843 117.141 9.07178 117.657 8.67666C118.172 8.28154 118.769 7.95085 119.443 7.69317C120.118 7.43548 120.843 7.30664 121.616 7.30664C122.883 7.30664 123.974 7.56432 124.885 8.07969C125.795 8.59506 126.491 9.38959 126.963 10.4633L126.74 10.3988C127.105 9.77611 127.556 9.23068 128.093 8.75826C128.63 8.28584 129.261 7.92508 129.991 7.68028C130.721 7.43548 131.524 7.31093 132.405 7.31093C133.951 7.31093 135.205 7.68028 136.171 8.42327C137.138 9.16196 137.825 10.0853 138.233 11.1934C138.641 12.2971 138.843 13.4653 138.843 14.6893V25.5721H132.143V16.0078C132.143 15.2562 132.074 14.6506 131.932 14.1868C131.791 13.7273 131.572 13.3751 131.271 13.1389C130.97 12.9027 130.562 12.7867 130.047 12.7867C129.532 12.7867 129.124 12.9284 128.759 13.2033C128.393 13.4825 128.119 13.8733 127.938 14.3801C127.754 14.8868 127.663 15.458 127.663 16.1023V25.5678H120.964V15.909C120.964 15.2218 120.899 14.6463 120.77 14.1868C120.641 13.7273 120.427 13.3751 120.126 13.1389C119.825 12.9027 119.43 12.7867 118.936 12.7867C118.507 12.7867 118.112 12.9113 117.747 13.1561C117.382 13.4052 117.09 13.7788 116.879 14.2813C116.665 14.7881 116.557 15.4022 116.557 16.1323V25.5678H109.857V11.5928C109.857 10.7983 109.853 10.1583 109.84 9.67733Z" fill="#163D30"></path><path d="M146.372 25.0826C144.868 24.3311 143.666 23.2316 142.764 21.78C141.862 20.3327 141.411 18.6277 141.411 16.6779C141.411 14.728 141.841 13.0918 142.7 11.653C143.558 10.2143 144.727 9.10195 146.208 8.32031C147.69 7.53867 149.331 7.14355 151.134 7.14355C152.938 7.14355 154.557 7.54726 155.932 8.35037C157.306 9.15349 158.38 10.2873 159.153 11.7475C159.926 13.2077 160.312 14.8698 160.312 16.738C160.312 17.2963 160.278 17.8117 160.213 18.2841H147.72C147.742 18.8209 147.935 19.3148 148.3 19.7658C148.665 20.2167 149.133 20.5646 149.7 20.8137C150.267 21.0628 150.855 21.183 151.457 21.183C152.251 21.183 152.955 21.0327 153.565 20.7321C154.175 20.4314 154.635 20.0449 154.935 19.5725L159.702 22.1493C158.865 23.4378 157.723 24.4341 156.271 25.1428C154.824 25.8514 153.162 26.2036 151.298 26.2036C149.434 26.2036 147.875 25.8256 146.372 25.0783V25.0826ZM153.986 13.0059C153.737 12.5764 153.381 12.2371 152.908 11.9923C152.436 11.7475 151.869 11.623 151.203 11.623C150.537 11.623 149.94 11.7561 149.417 12.0267C148.888 12.2972 148.476 12.6537 148.175 13.1046C147.875 13.5556 147.703 14.0194 147.66 14.4875H154.36C154.36 13.9292 154.235 13.4353 153.99 13.0059H153.986Z" fill="#163D30"></path><path d="M166.08 24.4901C164.985 23.4937 164.44 21.9605 164.44 19.9033V12.6581H161.704V7.79649H164.41V3.51465H170.946V7.79649H175.005V12.6581H170.946V18.5505C170.946 19.4524 171.122 20.0837 171.479 20.4488C171.831 20.8138 172.385 20.9942 173.137 20.9942C173.416 20.9942 173.699 20.9684 173.991 20.9126C174.279 20.8611 174.524 20.788 174.717 20.7022L174.747 25.4049C174.318 25.5981 173.764 25.7442 173.089 25.8386C172.415 25.9374 171.719 25.9847 171.011 25.9847C168.82 25.9847 167.18 25.4865 166.085 24.4858L166.08 24.4901Z" fill="#163D30"></path></svg> 